<svg width="53" height="58" viewBox="0 0 53 58" fill="none" xmlns="http://www.w3.org/2000/svg">
<g filter="url(#filter0_d_0_175)">
<rect x="6" width="27.8133" height="41.0128" rx="4" fill="url(#paint0_linear_0_175)"/>
</g>
<path d="M27.9715 23.1707L28.364 22.4528L27.5401 22.4273C26.2329 22.3869 24.9855 22.1589 23.7955 21.7447C22.6078 21.3312 21.5317 20.7428 20.5648 19.9794C19.5973 19.2155 18.8152 18.3398 18.2136 17.3523C17.613 16.3663 17.2248 15.3125 17.0472 14.1875L16.9333 13.4664L16.302 13.823C15.0616 14.5236 14.1034 15.4579 13.4425 16.6266C12.7826 17.7934 12.4926 19.0436 12.5791 20.3664C12.7117 22.3955 13.6337 24.0832 15.308 25.4051C16.98 26.7252 18.9461 27.3227 21.1769 27.2081C22.6343 27.1332 23.9712 26.7396 25.1794 26.0247C26.3881 25.3095 27.3227 24.3575 27.9715 23.1707ZM21.2208 27.8794C19.9605 27.9441 18.7726 27.7918 17.6532 27.4264C16.5234 27.0576 15.5344 26.5348 14.6807 25.8608C13.8274 25.1871 13.1339 24.3818 12.5976 23.4422C12.0679 22.5141 11.7668 21.5061 11.6953 20.4118C11.5712 18.5146 12.1385 16.8095 13.4193 15.2754C14.5627 13.906 16.0358 12.9584 17.8557 12.4358C17.7936 13.6555 18.0024 14.8412 18.4826 15.9874C19.0591 17.3635 19.9743 18.5424 21.2156 19.5225C22.4568 20.5024 23.8718 21.1637 25.4537 21.5067C26.7924 21.7971 28.1415 21.8399 29.4981 21.6367C29.1291 23.2277 28.2613 24.5924 26.8751 25.7395C25.2886 27.0523 23.4102 27.7668 21.2208 27.8794Z" stroke="black"/>
<g filter="url(#filter1_d_0_175)">
<rect x="26.0712" y="2.82849" width="27.8133" height="41.0128" rx="4" transform="rotate(20.5766 26.0712 2.82849)" fill="url(#paint1_linear_0_175)"/>
</g>
<g clip-path="url(#clip0_0_175)">
<path d="M29.164 32.9702H25.8279V29.6341V29.4292L25.6841 29.2832L23.3073 26.8704L25.6841 24.4577L25.8279 24.3117V24.1068V20.7707H29.164H29.3689L29.5149 20.6269L31.9276 18.2501L34.3404 20.6269L34.4864 20.7707H34.6913H38.0274V24.1068V24.3117L38.1712 24.4577L40.5479 26.8704L38.1712 29.2832L38.0274 29.4292V29.6341V32.9702H34.6913H34.4864L34.3404 33.114L31.9276 35.4907L29.5149 33.114L29.3689 32.9702H29.164ZM31.5741 34.2362L31.9276 34.5898L32.2812 34.2362L34.1972 32.3203H36.8774H37.3774V31.8203V29.14L39.2934 27.224L39.647 26.8704L39.2934 26.5169L37.3774 24.6009V21.9206V21.4206H36.8774H34.1972L32.2812 19.5046L31.9276 19.1511L31.5741 19.5046L29.6581 21.4206H26.9778H26.4778V21.9206V24.6009L24.5618 26.5169L24.2083 26.8704L24.5618 27.224L26.4778 29.14V31.8203V32.3203H26.9778H29.6581L31.5741 34.2362ZM35.0802 30.023C34.2126 30.8906 33.1715 31.3203 31.9276 31.3203C30.6838 31.3203 29.6427 30.8906 28.7751 30.023C27.9074 29.1554 27.4778 28.1143 27.4778 26.8704C27.4778 25.6266 27.9074 24.5855 28.7751 23.7179C29.6427 22.8502 30.6838 22.4206 31.9276 22.4206C33.1715 22.4206 34.2126 22.8502 35.0802 23.7179C35.9478 24.5855 36.3774 25.6266 36.3774 26.8704C36.3774 28.1143 35.9478 29.1554 35.0802 30.023ZM29.2435 29.5545C29.9828 30.2938 30.8865 30.6703 31.9276 30.6703C32.9688 30.6703 33.8725 30.2938 34.6117 29.5545C35.351 28.8153 35.7275 27.9116 35.7275 26.8704C35.7275 25.8293 35.351 24.9256 34.6117 24.1863C33.8725 23.4471 32.9688 23.0706 31.9276 23.0706C30.8865 23.0706 29.9828 23.4471 29.2435 24.1863C28.5043 24.9256 28.1277 25.8293 28.1277 26.8704C28.1277 27.9116 28.5043 28.8153 29.2435 29.5545ZM31.9276 28.4329C31.4792 28.4329 31.1193 28.2837 30.8169 27.9812C30.5144 27.6787 30.3652 27.3189 30.3652 26.8704C30.3652 26.422 30.5144 26.0621 30.8169 25.7597C31.1193 25.4572 31.4792 25.308 31.9276 25.308C32.3761 25.308 32.7359 25.4572 33.0384 25.7597C33.3409 26.0621 33.49 26.422 33.49 26.8704C33.49 27.3189 33.3409 27.6787 33.0384 27.9812C32.7359 28.2837 32.3761 28.4329 31.9276 28.4329Z" stroke="black"/>
</g>
<defs>
<filter id="filter0_d_0_175" x="0" y="0" width="35.8133" height="49.0128" filterUnits="userSpaceOnUse" color-interpolation-filters="sRGB">
<feFlood flood-opacity="0" result="BackgroundImageFix"/>
<feColorMatrix in="SourceAlpha" type="matrix" values="0 0 0 0 0 0 0 0 0 0 0 0 0 0 0 0 0 0 127 0" result="hardAlpha"/>
<feOffset dx="-2" dy="4"/>
<feGaussianBlur stdDeviation="2"/>
<feComposite in2="hardAlpha" operator="out"/>
<feColorMatrix type="matrix" values="0 0 0 0 0 0 0 0 0 0 0 0 0 0 0 0 0 0 0.67 0"/>
<feBlend mode="normal" in2="BackgroundImageFix" result="effect1_dropShadow_0_175"/>
<feBlend mode="normal" in="SourceGraphic" in2="effect1_dropShadow_0_175" result="shape"/>
</filter>
<filter id="filter1_d_0_175" x="6.80648" y="3.97803" width="46.1541" height="53.8724" filterUnits="userSpaceOnUse" color-interpolation-filters="sRGB">
<feFlood flood-opacity="0" result="BackgroundImageFix"/>
<feColorMatrix in="SourceAlpha" type="matrix" values="0 0 0 0 0 0 0 0 0 0 0 0 0 0 0 0 0 0 127 0" result="hardAlpha"/>
<feOffset dx="-2" dy="4"/>
<feGaussianBlur stdDeviation="2"/>
<feComposite in2="hardAlpha" operator="out"/>
<feColorMatrix type="matrix" values="0 0 0 0 0 0 0 0 0 0 0 0 0 0 0 0 0 0 0.67 0"/>
<feBlend mode="normal" in2="BackgroundImageFix" result="effect1_dropShadow_0_175"/>
<feBlend mode="normal" in="SourceGraphic" in2="effect1_dropShadow_0_175" result="shape"/>
</filter>
<linearGradient id="paint0_linear_0_175" x1="5.9578" y1="8.45495" x2="35.2818" y2="39.916" gradientUnits="userSpaceOnUse">
<stop stop-color="#537DA2"/>
<stop offset="1" stop-color="#283E5D"/>
</linearGradient>
<linearGradient id="paint1_linear_0_175" x1="26.029" y1="11.2834" x2="55.353" y2="42.7445" gradientUnits="userSpaceOnUse">
<stop stop-color="#537DA2"/>
<stop offset="1" stop-color="#283E5D"/>
</linearGradient>
<clipPath id="clip0_0_175">
<rect width="19.7993" height="19.7993" fill="white" transform="translate(22.028 16.9708)"/>
</clipPath>
</defs>
</svg>
