<svg width="278" height="100" viewBox="0 0 278 100" fill="none" xmlns="http://www.w3.org/2000/svg">
<path d="M261.501 55.9099C261.621 56.9599 261.876 57.9649 262.266 58.9249C262.656 59.8549 263.166 60.6799 263.796 61.3999C264.456 62.1199 265.251 62.7049 266.181 63.1549C267.111 63.5749 268.191 63.7849 269.421 63.7849C270.081 63.7849 270.771 63.6949 271.491 63.5149C272.241 63.3049 272.931 63.0199 273.561 62.6599C274.191 62.2999 274.746 61.8649 275.226 61.3549C275.736 60.8149 276.081 60.2149 276.261 59.5549H276.666V62.9299C276.486 62.9299 276.276 62.9899 276.036 63.1099C275.826 63.2299 275.571 63.3799 275.271 63.5599C274.671 63.9199 273.861 64.3099 272.841 64.7299C271.821 65.1199 270.471 65.3149 268.791 65.3149C267.441 65.3149 266.151 65.1199 264.921 64.7299C263.721 64.3399 262.656 63.7399 261.726 62.9299C260.796 62.1199 260.046 61.0849 259.476 59.8249C258.936 58.5649 258.666 57.0649 258.666 55.3249C258.666 54.2149 258.846 53.0899 259.206 51.9499C259.596 50.8099 260.166 49.7899 260.916 48.8899C261.696 47.9599 262.686 47.2099 263.886 46.6399C265.086 46.0699 266.526 45.7849 268.206 45.7849C269.706 45.7849 271.011 46.0399 272.121 46.5499C273.261 47.0599 274.191 47.7649 274.911 48.6649C275.661 49.5649 276.216 50.6299 276.576 51.8599C276.936 53.0899 277.116 54.4399 277.116 55.9099H261.501ZM268.026 47.2699C266.976 47.2699 266.061 47.4799 265.281 47.8999C264.531 48.3199 263.886 48.8599 263.346 49.5199C262.806 50.1799 262.386 50.9299 262.086 51.7699C261.786 52.6099 261.591 53.4499 261.501 54.2899H274.326C274.296 53.4199 274.131 52.5649 273.831 51.7249C273.561 50.8849 273.171 50.1349 272.661 49.4749C272.151 48.8149 271.506 48.2899 270.726 47.8999C269.946 47.4799 269.046 47.2699 268.026 47.2699Z" fill="white"/>
<path d="M255.15 59.8699C255.15 60.6499 254.955 61.3699 254.565 62.0299C254.175 62.6899 253.635 63.2749 252.945 63.7849C252.285 64.2649 251.505 64.6549 250.605 64.9549C249.705 65.2249 248.73 65.3599 247.68 65.3599C246.39 65.3599 245.34 65.1949 244.53 64.8649C243.72 64.5049 243.03 64.1449 242.46 63.7849C242.07 63.5449 241.71 63.3499 241.38 63.1999C241.05 63.0199 240.69 62.9299 240.3 62.9299V59.5099H240.75C240.84 59.9299 241.095 60.3949 241.515 60.9049C241.965 61.3849 242.49 61.8349 243.09 62.2549C243.72 62.6749 244.395 63.0349 245.115 63.3349C245.865 63.6049 246.615 63.7399 247.365 63.7399C247.905 63.7399 248.46 63.6799 249.03 63.5599C249.6 63.4399 250.11 63.2449 250.56 62.9749C251.04 62.7049 251.43 62.3749 251.73 61.9849C252.06 61.5649 252.225 61.0699 252.225 60.4999C252.225 59.9299 252.06 59.4349 251.73 59.0149C251.4 58.5949 250.98 58.2349 250.47 57.9349C249.96 57.6049 249.375 57.3199 248.715 57.0799C248.055 56.8399 247.395 56.6149 246.735 56.4049C245.955 56.1649 245.16 55.8949 244.35 55.5949C243.57 55.2949 242.865 54.9499 242.235 54.5599C241.605 54.1399 241.095 53.6449 240.705 53.0749C240.315 52.4749 240.12 51.7699 240.12 50.9599C240.12 50.2699 240.24 49.6099 240.48 48.9799C240.75 48.3499 241.17 47.8099 241.74 47.3599C242.34 46.8799 243.105 46.5049 244.035 46.2349C244.965 45.9349 246.09 45.7849 247.41 45.7849C248.58 45.7849 249.48 45.8899 250.11 46.0999C250.77 46.2799 251.31 46.4749 251.73 46.6849C252 46.8349 252.27 46.9549 252.54 47.0449C252.81 47.1049 253.11 47.1349 253.44 47.1349V50.2849H253.08C252.54 49.2949 251.715 48.5449 250.605 48.0349C249.495 47.5249 248.355 47.2699 247.185 47.2699C246.435 47.2699 245.79 47.3749 245.25 47.5849C244.71 47.7649 244.26 48.0049 243.9 48.3049C243.57 48.5749 243.315 48.8899 243.135 49.2499C242.985 49.6099 242.91 49.9699 242.91 50.3299C242.91 50.8399 243.045 51.2749 243.315 51.6349C243.615 51.9949 244.005 52.3099 244.485 52.5799C244.995 52.8499 245.55 53.1049 246.15 53.3449C246.78 53.5849 247.44 53.8099 248.13 54.0199C248.97 54.2899 249.81 54.5899 250.65 54.9199C251.49 55.2199 252.24 55.5949 252.9 56.0449C253.56 56.4949 254.1 57.0349 254.52 57.6649C254.94 58.2649 255.15 58.9999 255.15 59.8699Z" fill="white"/>
<path d="M229.861 65.0001V64.5501C230.101 64.5501 230.311 64.4601 230.491 64.2801C230.671 64.1001 230.821 63.8901 230.941 63.6501C231.061 63.4101 231.151 63.1551 231.211 62.8851C231.271 62.5851 231.301 62.3151 231.301 62.0751V49.6101C231.301 49.1001 231.226 48.6201 231.076 48.1701C230.926 47.6901 230.491 47.4351 229.771 47.4051V47.0001L234.271 45.5601V62.0751C234.271 62.3151 234.301 62.5851 234.361 62.8851C234.421 63.1551 234.511 63.4101 234.631 63.6501C234.751 63.8901 234.901 64.1001 235.081 64.2801C235.261 64.4601 235.471 64.5501 235.711 64.5501V65.0001H229.861ZM230.086 41.2401C230.086 40.6401 230.281 40.1301 230.671 39.7101C231.091 39.2901 231.601 39.0801 232.201 39.0801C232.801 39.0801 233.311 39.2901 233.731 39.7101C234.151 40.1301 234.361 40.6401 234.361 41.2401C234.361 41.8401 234.151 42.3351 233.731 42.7251C233.311 43.1151 232.801 43.3101 232.201 43.3101C231.601 43.3101 231.091 43.1151 230.671 42.7251C230.281 42.3351 230.086 41.8401 230.086 41.2401Z" fill="white"/>
<path d="M229.93 35.75C229.33 35.75 228.82 36.005 228.4 36.515C227.98 37.025 227.695 37.58 227.545 38.18L219.355 65.18L212.335 43.04L205.315 65.225L197.08 38.225C196.93 37.655 196.66 37.1 196.27 36.56C195.91 36.02 195.49 35.75 195.01 35.75V35.3H201.4V35.75C201.01 35.75 200.68 35.915 200.41 36.245C200.17 36.545 200.05 36.935 200.05 37.415C200.05 37.565 200.08 37.76 200.14 38L205.99 57.08L213.145 35.03L220.03 57.035L225.97 38C225.97 37.94 225.985 37.82 226.015 37.64C226.075 37.43 226.105 37.265 226.105 37.145C226.105 36.725 225.985 36.395 225.745 36.155C225.505 35.885 225.265 35.75 225.025 35.75V35.3H229.93V35.75Z" fill="white"/>
<path d="M187.793 65.3149C186.293 65.3149 184.943 65.0749 183.743 64.5949C182.543 64.0849 181.508 63.4099 180.638 62.5699C179.798 61.6999 179.138 60.6799 178.658 59.5099C178.208 58.3399 177.983 57.0649 177.983 55.6849C177.983 54.2149 178.238 52.8799 178.748 51.6799C179.258 50.4499 179.963 49.3999 180.863 48.5299C181.763 47.6599 182.828 46.9849 184.058 46.5049C185.288 46.0249 186.623 45.7849 188.063 45.7849C189.503 45.7849 190.823 46.0249 192.023 46.5049C193.223 46.9549 194.258 47.5999 195.128 48.4399C195.998 49.2799 196.673 50.2849 197.153 51.4549C197.633 52.5949 197.873 53.8549 197.873 55.2349C197.873 56.5249 197.648 57.7849 197.198 59.0149C196.778 60.2149 196.133 61.2799 195.263 62.2099C194.423 63.1399 193.373 63.8899 192.113 64.4599C190.883 65.0299 189.443 65.3149 187.793 65.3149ZM187.523 47.2699C186.443 47.3299 185.483 47.5999 184.643 48.0799C183.833 48.5299 183.143 49.1299 182.573 49.8799C182.033 50.5999 181.613 51.4249 181.313 52.3549C181.043 53.2849 180.908 54.2299 180.908 55.1899C180.908 56.2999 181.073 57.3799 181.403 58.4299C181.763 59.4499 182.258 60.3649 182.888 61.1749C183.548 61.9849 184.328 62.6299 185.228 63.1099C186.128 63.5899 187.133 63.8299 188.243 63.8299C189.353 63.8299 190.328 63.5899 191.168 63.1099C192.038 62.6299 192.758 62.0149 193.328 61.2649C193.898 60.4849 194.318 59.6149 194.588 58.6549C194.888 57.6949 195.038 56.7349 195.038 55.7749C195.038 54.7849 194.888 53.7949 194.588 52.8049C194.288 51.7849 193.823 50.8699 193.193 50.0599C192.563 49.2199 191.768 48.5449 190.808 48.0349C189.878 47.5249 188.783 47.2699 187.523 47.2699Z" fill="white"/>
<path d="M174.161 49.3849C173.801 48.7849 173.426 48.4099 173.036 48.2599C172.646 48.1099 172.196 48.0349 171.686 48.0349C171.356 48.0349 170.996 48.1099 170.606 48.2599C170.246 48.4099 169.886 48.6049 169.526 48.8449C169.166 49.0849 168.806 49.3549 168.446 49.6549C168.116 49.9249 167.831 50.1799 167.591 50.4199V62.1199C167.591 62.3599 167.621 62.6149 167.681 62.8849C167.741 63.1549 167.831 63.4249 167.951 63.6949C168.101 63.9349 168.251 64.1449 168.401 64.3249C168.581 64.4749 168.791 64.5499 169.031 64.5499V64.9999H163.181V64.5499C163.391 64.5499 163.586 64.4749 163.766 64.3249C163.946 64.1449 164.096 63.9349 164.216 63.6949C164.366 63.4249 164.471 63.1549 164.531 62.8849C164.591 62.6149 164.621 62.3599 164.621 62.1199V49.5649C164.621 49.1449 164.486 48.7249 164.216 48.3049C163.946 47.8849 163.556 47.6149 163.046 47.4949V47.1349L167.591 45.7849V48.4849C167.861 48.1549 168.146 47.8399 168.446 47.5399C168.746 47.2099 169.076 46.9249 169.436 46.6849C169.826 46.4149 170.246 46.2049 170.696 46.0549C171.146 45.8749 171.671 45.7849 172.271 45.7849C172.691 45.7849 173.231 45.8749 173.891 46.0549C174.551 46.2349 175.091 46.4299 175.511 46.6399L174.161 49.3849Z" fill="white"/>
<path d="M154.759 47.6301V58.4751C154.759 59.2551 154.774 59.9601 154.804 60.5901C154.834 61.2201 154.909 61.7451 155.029 62.1651C155.149 62.5851 155.329 62.9151 155.569 63.1551C155.809 63.3651 156.139 63.4701 156.559 63.4701C157.189 63.4701 157.774 63.1701 158.314 62.5701C158.884 61.9701 159.244 61.2501 159.394 60.4101H159.799V63.6951C159.529 63.6951 159.304 63.7851 159.124 63.9651C158.884 64.1751 158.539 64.4001 158.089 64.6401C157.669 64.8801 157.024 65.0001 156.154 65.0001C155.074 65.0001 154.234 64.7901 153.634 64.3701C153.034 63.9501 152.599 63.3951 152.329 62.7051C152.059 62.0151 151.894 61.2501 151.834 60.4101C151.804 59.5701 151.789 58.7151 151.789 57.8451V47.6301H149.269V46.1001H151.789V42.0951C151.789 41.5851 151.714 41.1201 151.564 40.7001C151.444 40.2501 151.009 40.0101 150.259 39.9801V39.5301L154.759 38.0901V46.1001H159.799V47.6301H154.759Z" fill="white"/>
<path d="M146.473 59.8699C146.473 60.6499 146.278 61.3699 145.888 62.0299C145.498 62.6899 144.958 63.2749 144.268 63.7849C143.608 64.2649 142.828 64.6549 141.928 64.9549C141.028 65.2249 140.053 65.3599 139.003 65.3599C137.713 65.3599 136.663 65.1949 135.853 64.8649C135.043 64.5049 134.353 64.1449 133.783 63.7849C133.393 63.5449 133.033 63.3499 132.703 63.1999C132.373 63.0199 132.013 62.9299 131.623 62.9299V59.5099H132.073C132.163 59.9299 132.418 60.3949 132.838 60.9049C133.288 61.3849 133.813 61.8349 134.413 62.2549C135.043 62.6749 135.718 63.0349 136.438 63.3349C137.188 63.6049 137.938 63.7399 138.688 63.7399C139.228 63.7399 139.783 63.6799 140.353 63.5599C140.923 63.4399 141.433 63.2449 141.883 62.9749C142.363 62.7049 142.753 62.3749 143.053 61.9849C143.383 61.5649 143.548 61.0699 143.548 60.4999C143.548 59.9299 143.383 59.4349 143.053 59.0149C142.723 58.5949 142.303 58.2349 141.793 57.9349C141.283 57.6049 140.698 57.3199 140.038 57.0799C139.378 56.8399 138.718 56.6149 138.058 56.4049C137.278 56.1649 136.483 55.8949 135.673 55.5949C134.893 55.2949 134.188 54.9499 133.558 54.5599C132.928 54.1399 132.418 53.6449 132.028 53.0749C131.638 52.4749 131.443 51.7699 131.443 50.9599C131.443 50.2699 131.563 49.6099 131.803 48.9799C132.073 48.3499 132.493 47.8099 133.063 47.3599C133.663 46.8799 134.428 46.5049 135.358 46.2349C136.288 45.9349 137.413 45.7849 138.733 45.7849C139.903 45.7849 140.803 45.8899 141.433 46.0999C142.093 46.2799 142.633 46.4749 143.053 46.6849C143.323 46.8349 143.593 46.9549 143.863 47.0449C144.133 47.1049 144.433 47.1349 144.763 47.1349V50.2849H144.403C143.863 49.2949 143.038 48.5449 141.928 48.0349C140.818 47.5249 139.678 47.2699 138.508 47.2699C137.758 47.2699 137.113 47.3749 136.573 47.5849C136.033 47.7649 135.583 48.0049 135.223 48.3049C134.893 48.5749 134.638 48.8899 134.458 49.2499C134.308 49.6099 134.233 49.9699 134.233 50.3299C134.233 50.8399 134.368 51.2749 134.638 51.6349C134.938 51.9949 135.328 52.3099 135.808 52.5799C136.318 52.8499 136.873 53.1049 137.473 53.3449C138.103 53.5849 138.763 53.8099 139.453 54.0199C140.293 54.2899 141.133 54.5899 141.973 54.9199C142.813 55.2199 143.563 55.5949 144.223 56.0449C144.883 56.4949 145.423 57.0349 145.843 57.6649C146.263 58.2649 146.473 58.9999 146.473 59.8699Z" fill="white"/>
<path d="M122.495 64.55H122.72C123.44 64.55 123.8 64.22 123.8 63.56C123.8 63.32 123.755 63.065 123.665 62.795L119.615 51.86H111.74L107.825 62.615C107.735 62.855 107.69 63.08 107.69 63.29C107.69 63.68 107.795 63.995 108.005 64.235C108.215 64.445 108.44 64.55 108.68 64.55H108.905V65H103.91V64.55H104.135C104.525 64.55 104.9 64.325 105.26 63.875C105.65 63.395 105.965 62.84 106.205 62.21L116.51 34.76L126.59 61.94C126.8 62.54 127.085 63.125 127.445 63.695C127.835 64.265 128.33 64.55 128.93 64.55H129.155V65H122.495V64.55ZM112.19 50.33H119.12L115.655 40.925L112.19 50.33Z" fill="white"/>
<path d="M41.8968 70.6441C42.1756 70.6441 42.1756 70.2107 41.8968 70.2107C41.6179 70.2107 41.6179 70.6441 41.8968 70.6441Z" fill="white"/>
<path d="M62.8298 72.5136C63.1087 72.5136 63.1087 72.0802 62.8298 72.0802C62.551 72.0802 62.551 72.5136 62.8298 72.5136Z" fill="white"/>
<path d="M85.8708 35.4194C86.4996 35.4194 87.0093 34.9097 87.0093 34.281C87.0093 33.6522 86.4996 33.1425 85.8708 33.1425C85.2421 33.1425 84.7324 33.6522 84.7324 34.281C84.7324 34.9097 85.2421 35.4194 85.8708 35.4194Z" fill="white"/>
<path d="M22.5833 73.1362C22.8621 73.1362 22.8621 72.7028 22.5833 72.7028C22.3044 72.7028 22.3044 73.1362 22.5833 73.1362Z" fill="white"/>
<path d="M26.1966 66.9065C26.4754 66.9065 26.4754 66.4731 26.1966 66.4731C25.9178 66.4731 25.9178 66.9065 26.1966 66.9065Z" fill="white"/>
<path d="M77.2499 68.6633C77.5288 68.6633 77.5288 68.2299 77.2499 68.2299C76.9711 68.2299 76.9711 68.6633 77.2499 68.6633Z" fill="white"/>
<path d="M72.673 60.801C72.9518 60.801 72.9518 60.3675 72.673 60.3675C72.3941 60.3675 72.3941 60.801 72.673 60.801Z" fill="white"/>
<path d="M72.1745 37.8755C72.4534 37.8755 72.4534 37.4421 72.1745 37.4421C71.8957 37.4421 71.8957 37.8755 72.1745 37.8755Z" fill="white"/>
<path d="M77.2832 28.4052C77.562 28.4052 77.562 27.9717 77.2832 27.9717C77.0043 27.9717 77.0043 28.4052 77.2832 28.4052Z" fill="white"/>
<path d="M43.0179 22.9237C43.2967 22.9237 43.2967 22.4903 43.0179 22.4903C42.7391 22.4903 42.7391 22.9237 43.0179 22.9237Z" fill="white"/>
<path d="M30.9325 26.5371C31.2114 26.5371 31.2114 26.1036 30.9325 26.1036C30.6537 26.1036 30.6537 26.5371 30.9325 26.5371Z" fill="white"/>
<path d="M28.0661 37.6256C28.345 37.6256 28.345 37.1922 28.0661 37.1922C27.7873 37.1922 27.7873 37.6256 28.0661 37.6256Z" fill="white"/>
<path d="M16.7277 45.3579C17.6566 45.3579 17.6595 43.9131 16.7277 43.9131C15.7958 43.9131 15.7958 45.3579 16.7277 45.3579Z" fill="white"/>
<path d="M61.583 28.7866C62.512 28.7866 62.5149 27.3418 61.583 27.3418C60.6511 27.3418 60.6511 28.7866 61.583 28.7866Z" fill="white"/>
<path d="M82.6403 42.6172C83.5693 42.6172 83.5722 41.1725 82.6403 41.1725C81.7085 41.1725 81.7085 42.6172 82.6403 42.6172Z" fill="white"/>
<path d="M72.7105 76.2569C73.6395 76.2569 73.6424 74.8122 72.7105 74.8122C71.7787 74.8122 71.7787 76.2569 72.7105 76.2569Z" fill="white"/>
<path d="M40.0273 78.5C40.9562 78.5 40.9591 77.0227 40.0273 77.0227C39.0954 77.0227 39.0954 78.5 40.0273 78.5Z" fill="white"/>
<path d="M15.6065 60.1855C16.5355 60.1855 16.5384 58.7407 15.6065 58.7407C14.6747 58.7407 14.6747 60.1855 15.6065 60.1855Z" fill="white"/>
<path d="M40.6514 31.0711C41.5804 31.0711 41.5833 29.6263 40.6514 29.6263C39.7195 29.6263 39.7195 31.0711 40.6514 31.0711Z" fill="white"/>
<path d="M22.3348 33.9782C23.2637 33.9782 23.2666 32.5335 22.3348 32.5335C21.4029 32.5335 21.4029 33.9782 22.3348 33.9782Z" fill="white"/>
<path d="M71.3019 24.0521C72.2309 24.0521 72.2338 22.6074 71.3019 22.6074C70.37 22.6074 70.37 24.0521 71.3019 24.0521Z" fill="white"/>
<path d="M50.7835 22.6955L56.1291 36.9986L70.0406 30.672L63.8585 44.1501L78.0171 49.9291L63.8585 55.5637L70.0406 69.1862L56.1291 62.8597L50.7835 77.1628L45.2934 62.8597L31.5264 69.1862L37.5639 55.5637L23.5498 49.9291L37.5639 44.1501L31.5264 30.672L45.2934 36.9986L50.7835 22.6955Z" fill="url(#paint0_linear_2_4)"/>
<path d="M60.9201 51.5212C61.8186 45.9859 58.0598 40.7702 52.5245 39.8717C46.9892 38.9732 41.7735 42.7321 40.875 48.2674C39.9765 53.8027 43.7354 59.0183 49.2707 59.9169C54.806 60.8154 60.0216 57.0565 60.9201 51.5212Z" fill="url(#paint1_linear_2_4)"/>
<path d="M50.8961 39.956C56.3747 39.956 60.8332 44.413 60.8332 49.893C60.8332 55.373 56.3761 59.83 50.8961 59.83C45.4162 59.83 40.9591 55.373 40.9591 49.893C40.9591 44.413 45.4162 39.956 50.8961 39.956ZM50.8961 39.5225C45.1691 39.5225 40.5257 44.166 40.5257 49.893C40.5257 55.62 45.1691 60.2635 50.8961 60.2635C56.6232 60.2635 61.2666 55.62 61.2666 49.893C61.2666 44.166 56.6232 39.5225 50.8961 39.5225Z" fill="url(#paint2_linear_2_4)"/>
<defs>
<linearGradient id="paint0_linear_2_4" x1="49.7737" y1="0" x2="49.7737" y2="99.5474" gradientUnits="userSpaceOnUse">
<stop stop-color="#EBD1FF"/>
<stop offset="1" stop-color="#8C00FB"/>
</linearGradient>
<linearGradient id="paint1_linear_2_4" x1="50.8961" y1="39.5225" x2="50.8961" y2="60.2635" gradientUnits="userSpaceOnUse">
<stop stop-color="#31004F"/>
<stop offset="1" stop-color="#8C00FB"/>
</linearGradient>
<linearGradient id="paint2_linear_2_4" x1="50.8961" y1="39.5225" x2="50.8961" y2="60.2635" gradientUnits="userSpaceOnUse">
<stop stop-color="#31004F"/>
<stop offset="1" stop-color="#8C00FB"/>
</linearGradient>
</defs>
</svg>
