<svg width="41" height="46" viewBox="0 0 41 46" fill="none" xmlns="http://www.w3.org/2000/svg">
<path d="M2.125 0L23.7812 21.5L29.7188 15.5625L3.46875 0.40625C3.03125 0.152344 2.5625 0.011719 2.125 0ZM0.3125 1C0.117188 1.34766 0 1.75781 0 2.21875V44C0 44.3359 0.070313 44.6367 0.1875 44.9062L22.3438 22.9062L0.3125 1ZM31.5312 16.5938L25.1875 22.9062L31.5312 29.1875L39.2812 24.75C40.3828 24.1133 40.5391 23.3047 40.5312 22.875C40.5195 22.1641 40.0703 21.5 39.3125 21.0938C38.6523 20.7383 33.75 17.8828 31.5312 16.5938ZM23.7812 24.3125L1.9375 45.9688C2.30078 45.9492 2.69531 45.8711 3.0625 45.6562C3.91797 45.1602 21.2188 35.1562 21.2188 35.1562L29.75 30.25L23.7812 24.3125Z" fill="white"/>
</svg>
